<?xml version="1.0" standalone="no"?><!DOCTYPE svg PUBLIC "-//W3C//DTD SVG 1.1//EN" "http://www.w3.org/Graphics/SVG/1.1/DTD/svg11.dtd"><svg class="icon" width="200px" height="200.00px" viewBox="0 0 1024 1024" version="1.1" xmlns="http://www.w3.org/2000/svg"><path d="M820.4 682V428.5c0-129.5-96.9-238.2-227.2-268.7v-18.3c0-42.4-36.4-76.9-81.2-76.9-44.8 0-81.2 34.5-81.2 76.9v18.3C300.4 190.3 203.6 299 203.6 428.5V684l-30.1 89.3v5.3c0 26.6 22.4 48.3 49.8 48.3h576.8c27.8 0 50.4-21.9 50.4-48.8v-5.2L820.4 682zM495.2 141.5c0-5.9 6.9-12.5 16.8-12.5s16.7 6.6 16.7 12.5v9.9c-3.2-0.1-6.2-0.4-9.4-0.4h-14.7c-3.2 0-6.3 0.4-9.4 0.4v-9.9z m-250 620.9l22.8-67.8v-266c0-117.5 106.1-213 236.6-213h14.7c130.5 0 236.6 95.6 236.6 213v263.9l23.1 70H245.2zM521 894.9c-30.7 0-55.7-15.7-55.7-48h-64.5c0 64.5 53.9 112.4 120.2 112.4 66.2 0 120.1-48 120.1-112.4h-64.5c0.1 32.3-24.9 48-55.6 48z"  /></svg>