<?xml version="1.0" standalone="no"?><!DOCTYPE svg PUBLIC "-//W3C//DTD SVG 1.1//EN" "http://www.w3.org/Graphics/SVG/1.1/DTD/svg11.dtd"><svg class="icon" width="200px" height="200.00px" viewBox="0 0 1024 1024" version="1.1" xmlns="http://www.w3.org/2000/svg"><path d="M954.596304 817.598116c-7.899924 27.202549-46.462195 143.561673-209.685673 143.561673-11.472286 0-184.794773 19.045775-447.109084-233.991242C38.23072 476.774731 62.450331 317.6762 63.531965 281.640472c0.024559-0.827855 0.081864-1.657756 0.165776-2.481518 4.835122-47.709605 17.900695-92.078115 32.373315-117.0386 27.745924-47.848775 82.784448-80.335676 111.205754-91.039459s51.957349-18.207687 73.958432 21.089317l88.575338 144.790664c8.630564 14.104229 15.913435 61.488423 1.910513 75.491345-6.371104 6.104021-25.279756 24.3772-39.531342 35.003212-14.245446 10.621918-27.423583 21.86703-39.531342 33.738405-12.097526 11.871375-17.769712 21.651113-18.153452 29.300326-1.072425 21.396309 35.443233 104.038518 135.808082 204.403367 96.027054 96.027054 178.549535 129.896442 204.629517 135.660726 7.461949 1.64957 17.417695-6.0416 29.330002-18.134009 11.913331-12.091386 23.168676-25.249057 33.775244-39.48427 10.605545-14.240329 22.286586-27.403117 35.047214-39.489386 12.753465-12.091386 43.455721-11.416004 57.748239-3.13541l162.434509 94.122681C958.089871 756.566088 970.091206 764.752538 954.596304 817.598116L954.596304 817.598116C954.596304 817.598116 967.021288 774.815731 954.596304 817.598116z" /></svg>